# xmcd
#
# Track frame offsets: 
#        150
#        18565
#        32866
#        60542
#        82037
#        99101
#        124130
#        144510
#        155435
#        177207
#        191896
#
# Disc length: 2758 seconds
#
# Revision: 0
# Processed by: cddbd v1.5.2PL0 Copyright (c) Steve Scherf et al.
# Submitted via: ExactAudioCopyFreeDBPlugin 1.0
#
DISCID=900ac40b
DTITLE=Cara Dillon - Cara Dillon
DYEAR=2010
DGENRE=Country
TTITLE0=Black is the Colour
TTITLE1=The Maid of Culmore
TTITLE2=I Am A Youth That's Inclined To Ramble
TTITLE3=Craigie Hill
TTITLE4=Blue Mountain River
TTITLE5=Donald of Glencoe
TTITLE6=Green Grows The Laurel
TTITLE7=Lark In The Clear Air
TTITLE8=The Lonesome Scenes of Wint
TTITLE9=I Wish I Was
TTITLE10=She's like the Swallow
EXTD=这张唱片，对即使非常不习惯听传统乡村音乐的人，也易于接受。    本专辑中的《黑色也是多彩的》（Black is the Colo
EXTD=ur）和 “Hotpress’ Best Trad获得最佳专辑奖\n表演者: Cara Dillon   \n流派: 流行 \n专
EXTD=辑类型: 专辑 \n介质: Audio CD \n发行时间: 2002 \n出版者: Sanctuary Records \n唱片
EXTD=数: 1 \n条型码: 0060768320222 \n\nCarapDillonpp卡拉·迪伦p当下爱尔兰最具号召力的女歌手。 
EXTD=\n　　 \n　　给我的感觉她就只是个孩子，不知道用天籁去形容是否恰当。 \n　　 \n　　她出生于1975年，来自一个爱尔兰传统
EXTD=音乐世家。她的声音如此清透美丽而极具风格，让观众们觉得相间恨晚。用这样一句话来形容Cara Dillon不足为过：Cara Dil
EXTD=lon是个不寻常的天才！ \n　　仅仅几年的时间内，Cara Dillon凭借她震撼人心的表演和成熟迷人的声音赢得了整个国家观众的
EXTD=心，以及其他几个国家的观众，因为她的表演能穿越国界，文化和语言。自从Cara Dillon与Sam Lakeman离开原来的唱片公
EXTD=司去追求自己个性化的音乐，他们已经逐渐写出并录制了显示他们自己强烈个性的首张唱片。自1996年之后5年时间里，尽管他们面临诸多困难
EXTD=，于2001年，精美的一张唱片终于出炉问世。几乎所有的歌曲都是具有传统习俗风格的，但也有一些精细的创新，属于他们个性化的创意，如在
EXTD=歌曲中叙述一个美妙的故事，特别是Sam Lakeman亲自弹奏的钢琴伴奏声，极和谐地配合着他美妙的声音流淌。因此，这张唱片，对即使
EXTD=非常不习惯听传统乡村音乐的人，也易于接受。 \n　　 \n　　本专辑中的《黑色也是多彩的》（Black is the Colour
EXTD=）和 “Hotpress’ Best Trad获得最佳专辑奖 \n　　 \n　　 \n　　评论 \n　　 \n　　《Q杂志》： \n
EXTD=　　爱尔兰曾培育出无数夺冠的音乐家，但是即使是在这样的星光闪耀之下，Cara Dillon也是他们中的一个奇迹——一位长着大大眼睛
EXTD=的玩玩全全的爱尔兰人……Cara Dillon声音的表现力远远超越了她的年龄，及具商业价值。” \n　　 \n　　《每日电报》： 
EXTD=\n　　“成熟、从容，全身散发着迷人的气质……” \n　　 \n　　《英国民谣杂志》： \n　　“Cara Dillon，可以毫不
EXTD=夸张的说，是现今我们能够听到的最美妙的声音之一……” \n　　 \n　　《爱尔兰音乐杂志》： \n　　“Cara Dillon的声
EXTD=音冷静中富有感情，充满了温暖的气息和与生俱来的信仰。” \n　　 \n　　《韵律杂志》： \n　　“如果有人怀疑传统音乐的力量，那
EXTD=么这张专辑会立刻让你相信！诠释爱情、离别和孤独的歌曲从来没有如此美妙过……她歌声中的清澈和美好具有独特的魅力——这个女孩绝对有成功
EXTD=的本钱！” \n　　 \n　　《生活传统》： \n　　“她能够从已有的标准曲目中发展出自己的歌曲，并且让你觉得那就是专门为她写的，
EXTD=这种罕见的能力就是她最关键的独特之处……她的专辑所涉及的范围和质量会令无数人震惊。” \n　　 \n　　《Time Out》（伦敦
EXTD=）： \n　　“这位民谣新星的初次登场设计精心巧妙、感情细腻美好……继承了冷漠的传统……但是给观众带来的感情冲击却跨越了国家的界限
EXTD=，让她赢得了各国观众的心。她亲切的声音和萨姆·莱克曼的钢琴结合在一起，共同奏响了绝世之曲。” \n　　 \n　　《星期日先驱报》 
EXTD=\n　　“……年轻、纯粹的爱尔兰血统、华丽……她的声音让人慨叹：此曲只应天上有，人间哪得几回闻。” \n　　 \n　　《旁观者》:
EXTD=\n　　“……Cara Dillon的每一个音符都饱涵感情与技巧” \n　　 \n　　《Mojo》: \n　　“……令人震惊的美
EXTD=妙声音” \n\n曲目 ······ \n\n\n\n\n 表演者: Cara Dillon \n专辑类型: 专辑 \n介质: C
EXTD=D \n发行时间: 2008-09-16 \n出版者: Rough Trade \n唱片数: 1 \n条型码: 505029410
EXTD=0028 \n其他版本:  Cara Dillon 
EXTT0=
EXTT1=
EXTT2=
EXTT3=
EXTT4=
EXTT5=
EXTT6=
EXTT7=
EXTT8=
EXTT9=
EXTT10=
PLAYORDER=
